<?xml version="1.0" encoding="UTF-8" standalone="no"?>
<!-- Created with Inkscape (http://www.inkscape.org/) -->

<svg
   xmlns:dc="http://purl.org/dc/elements/1.1/"
   xmlns:cc="http://creativecommons.org/ns#"
   xmlns:rdf="http://www.w3.org/1999/02/22-rdf-syntax-ns#"
   xmlns:svg="http://www.w3.org/2000/svg"
   xmlns="http://www.w3.org/2000/svg"
   xmlns:sodipodi="http://sodipodi.sourceforge.net/DTD/sodipodi-0.dtd"
   xmlns:inkscape="http://www.inkscape.org/namespaces/inkscape"
   version="1.1"
   id="svg5714"
   width="302"
   height="104.22268"
   viewBox="0 0 302 104.22268"
   sodipodi:docname="logo.svg"
   inkscape:version="0.92.2 2405546, 2018-03-11">
  <metadata
     id="metadata5720">
    <rdf:RDF>
      <cc:Work
         rdf:about="">
        <dc:format>image/svg+xml</dc:format>
        <dc:type
           rdf:resource="http://purl.org/dc/dcmitype/StillImage" />
        <dc:title></dc:title>
      </cc:Work>
    </rdf:RDF>
  </metadata>
  <defs
     id="defs5718" />
  <sodipodi:namedview
     pagecolor="#ffffff"
     bordercolor="#666666"
     borderopacity="1"
     objecttolerance="10"
     gridtolerance="10"
     guidetolerance="10"
     inkscape:pageopacity="0"
     inkscape:pageshadow="2"
     inkscape:window-width="1916"
     inkscape:window-height="1038"
     id="namedview5716"
     showgrid="false"
     units="px"
     inkscape:zoom="1.7017703"
     inkscape:cx="250.02255"
     inkscape:cy="-36.047946"
     inkscape:window-x="2"
     inkscape:window-y="40"
     inkscape:window-maximized="0"
     inkscape:current-layer="svg5714"
     fit-margin-top="1"
     fit-margin-left="1"
     fit-margin-right="1"
     fit-margin-bottom="1" />
  <g
     inkscape:groupmode="layer"
     id="layer1"
     inkscape:label="Layer 1"
     transform="translate(1,-98.990249)" />
  <path
     style="opacity:0.95;fill:#141e1e;fill-opacity:1;stroke:#141e1e;stroke-width:0.45904508;stroke-linejoin:round;stroke-miterlimit:4;stroke-dasharray:none;stroke-dashoffset:0;stroke-opacity:1;paint-order:stroke fill markers"
     d="m 2.1753555,1.2295225 c -0.5239749,0 -0.945833,0.657466 -0.945833,1.474081 V 101.51909 c 0,0.81662 0.4218581,1.47407 0.945833,1.47407 H 98.411209 c 0.523971,0 0.945831,-0.65745 0.945831,-1.47407 V 2.7036035 c 0,-0.816615 -0.42186,-1.474081 -0.945831,-1.474081 z"
     id="rect5794"
     inkscape:connector-curvature="0"
     sodipodi:nodetypes="sssssssss"
     inkscape:export-xdpi="174.588"
     inkscape:export-ydpi="174.588" />
  <rect
     style="opacity:0.95;fill:#ffffff;fill-opacity:1;stroke:none;stroke-width:0.23307598;stroke-linejoin:round;stroke-miterlimit:4;stroke-dasharray:none;stroke-dashoffset:0;stroke-opacity:1;paint-order:stroke fill markers"
     id="rect5980"
     width="78.636177"
     height="78.636177"
     x="11.052816"
     y="12.793257"
     inkscape:export-xdpi="174.588"
     inkscape:export-ydpi="174.588" />
  <path
     style="fill:#141e1e;fill-opacity:1;stroke-width:0.82155472"
     d="M 15.044054,75.114876 V 62.791555 h 12.323321 12.323321 v 12.323321 12.32332 H 27.367375 15.044054 Z m 23.003532,0 V 64.434664 H 27.367375 16.687163 v 10.680212 10.68021 h 10.680212 10.680211 z m -19.717313,0 v -9.037102 h 9.037102 9.037102 v 9.037102 9.0371 h -9.037102 -9.037102 z m 16.431094,0 v -7.393993 h -7.393992 -7.393993 v 7.393993 7.39399 h 7.393993 7.393992 z m -13.144875,0 v -5.750883 h 5.750883 5.750883 v 5.750883 5.75088 h -5.750883 -5.750883 z m 9.858656,0 v -4.107774 h -4.107773 -4.107774 v 4.107774 4.10777 h 4.107774 4.107773 z m 9.858657,9.85866 c 0,-2.19082 0.273849,-2.46467 2.464664,-2.46467 2.190815,0 2.464664,0.27385 2.464664,2.46467 0,2.19081 -0.273849,2.46466 -2.464664,2.46466 -2.190815,0 -2.464664,-0.27385 -2.464664,-2.46466 z m 3.286219,0 c 0,-0.45186 -0.3697,-0.82156 -0.821555,-0.82156 -0.451855,0 -0.821555,0.3697 -0.821555,0.82156 0,0.45185 0.3697,0.82155 0.821555,0.82155 0.451855,0 0.821555,-0.3697 0.821555,-0.82155 z m 6.572438,-0.82156 v -3.28622 h -4.929329 -4.929328 v -4.107771 c 0,-4.016482 0.0548,-4.107774 2.464664,-4.107774 1.916958,0 2.464664,0.36514 2.464664,1.64311 0,1.460543 0.547706,1.643109 4.929329,1.643109 4.381622,0 4.929328,0.182566 4.929328,1.64311 0,0.90371 0.369699,1.643106 0.821555,1.643106 0.451855,0 0.821554,-1.478795 0.821554,-3.286216 0,-2.738513 0.273849,-3.286219 1.64311,-3.286219 0.90371,0 1.643108,-0.369699 1.643108,-0.821554 0,-0.451855 -1.109098,-0.821555 -2.464663,-0.821555 -1.916958,0 -2.464664,0.36514 -2.464664,1.643109 0,1.424026 -0.547706,1.64311 -4.107774,1.64311 -3.560067,0 -4.107773,-0.219084 -4.107773,-1.64311 0,-1.369252 -0.547706,-1.643109 -3.286219,-1.643109 H 41.333805 V 63.61311 c 0,-6.846287 0.121713,-7.393993 1.643109,-7.393993 1.277978,0 1.64311,-0.547698 1.64311,-2.464664 0,-1.355565 -0.3697,-2.464664 -0.821555,-2.464664 -0.451855,0 -0.821555,0.739399 -0.821555,1.643109 0,1.369261 -0.547706,1.64311 -3.286218,1.64311 -1.807421,0 -3.286219,0.369699 -3.286219,0.821554 0,0.451855 0.739399,0.821555 1.643109,0.821555 1.277978,0 1.64311,0.547706 1.64311,2.464664 v 2.464664 h -7.393993 -7.393992 v -4.107773 c 0,-4.016483 0.0548,-4.107774 2.464664,-4.107774 1.916958,0 2.464664,0.36514 2.464664,1.64311 0,0.90371 0.3697,1.643109 0.821555,1.643109 0.451855,0 0.821554,-0.739399 0.821554,-1.643109 0,-1.095404 0.547706,-1.64311 1.64311,-1.64311 1.095403,0 1.643109,-0.547697 1.643109,-1.643109 0,-1.369256 0.547706,-1.643113 3.286219,-1.643113 1.80742,0 3.286219,-0.3697 3.286219,-0.821555 0,-0.451855 -1.848498,-0.821554 -4.107774,-0.821554 -3.560067,0 -4.107773,0.219084 -4.107773,1.643109 0,1.424037 -0.547706,1.643113 -4.107774,1.643113 -3.560068,0 -4.107773,-0.219076 -4.107773,-1.643113 0,-0.90371 -0.3697,-1.643109 -0.821555,-1.643109 -0.451855,0 -0.821555,0.739399 -0.821555,1.643109 0,1.277981 -0.547706,1.643113 -2.464664,1.643113 -1.916958,0 -2.464664,-0.365132 -2.464664,-1.643113 0,-1.095403 -0.547706,-1.643109 -1.64311,-1.643109 -1.277977,0 -1.643109,-0.547698 -1.643109,-2.464665 0,-2.190807 0.273849,-2.464664 2.464664,-2.464664 1.916958,0 2.464664,0.36514 2.464664,1.64311 0,0.90371 0.3697,1.643109 0.821555,1.643109 0.451855,0 0.821555,-0.739399 0.821555,-1.643109 0,-1.424026 0.547706,-1.64311 4.107773,-1.64311 3.560068,0 4.107774,0.219084 4.107774,1.64311 0,0.90371 0.3697,1.643109 0.821555,1.643109 0.451855,0 0.821554,-0.739399 0.821554,-1.643109 0,-1.460536 0.547706,-1.64311 4.929329,-1.64311 h 4.929328 v -3.286219 c 0,-2.738513 0.273849,-3.286218 1.643109,-3.286218 1.095404,0 1.64311,-0.547698 1.64311,-1.64311 0,-1.424025 0.547706,-1.643109 4.107773,-1.643109 h 4.107774 v 4.107773 c 0,3.560076 -0.219084,4.107774 -1.643109,4.107774 -1.095404,0 -1.64311,0.547706 -1.64311,1.643109 0,1.369261 -0.547706,1.64311 -3.286219,1.64311 -1.80742,0 -3.286219,0.369699 -3.286219,0.821554 0,0.451856 0.7394,0.821555 1.64311,0.821555 1.095403,0 1.643109,0.547706 1.643109,1.64311 0,0.90371 0.3697,1.643109 0.821555,1.643109 0.451855,0 0.821555,-0.739399 0.821555,-1.643109 0,-1.27797 0.547706,-1.64311 2.464664,-1.64311 2.190815,0 2.464664,0.273857 2.464664,2.464664 0,1.91697 -0.365132,2.464668 -1.643109,2.464668 -1.369261,0 -1.64311,0.547706 -1.64311,3.286219 0,2.738521 -0.273849,3.286219 -1.643109,3.286219 -1.277978,0 -1.64311,0.547705 -1.64311,2.464664 0,1.355565 0.3697,2.464664 0.821555,2.464664 0.451855,0 0.821555,-0.739399 0.821555,-1.64311 0,-1.095403 0.547706,-1.643109 1.643109,-1.643109 1.095404,0 1.64311,-0.547698 1.64311,-1.643109 0,-1.095404 0.547705,-1.64311 1.643109,-1.64311 1.460544,0 1.643109,-0.547698 1.643109,-4.929328 v -4.929332 h 2.464665 c 1.916958,0 2.464664,0.36514 2.464664,1.64311 0,1.277977 0.547706,1.643109 2.464663,1.643109 1.355565,0 2.464664,-0.3697 2.464664,-0.821555 0,-0.451855 -0.739399,-0.821554 -1.643109,-0.821554 -1.277978,0 -1.64311,-0.547698 -1.64311,-2.464665 0,-2.190807 0.273849,-2.464664 2.464665,-2.464664 1.916958,0 2.464664,0.36514 2.464664,1.64311 0,1.095412 0.547706,1.643109 1.643109,1.643109 1.095404,0 1.64311,0.547706 1.64311,1.64311 0,1.277977 0.547705,1.643109 2.464664,1.643109 1.355565,0 2.464664,-0.3697 2.464664,-0.821555 0,-0.451855 -0.739399,-0.821554 -1.64311,-0.821554 -1.277977,0 -1.643109,-0.547698 -1.643109,-2.464665 0,-2.190807 0.273849,-2.464664 2.464664,-2.464664 1.916958,0 2.464664,0.36514 2.464664,1.64311 0,0.90371 0.3697,1.643109 0.821555,1.643109 0.451855,0 0.821555,-0.739399 0.821555,-1.643109 0,-1.424026 0.547706,-1.64311 4.10777,-1.64311 h 4.107774 v 5.750883 5.750887 h -4.107774 c -3.560064,0 -4.10777,-0.219076 -4.10777,-1.64311 0,-0.90371 -0.3697,-1.643109 -0.821555,-1.643109 -0.451855,0 -0.821555,1.478798 -0.821555,3.286219 0,2.738521 -0.273849,3.286219 -1.643109,3.286219 -0.90371,0 -1.64311,0.369699 -1.64311,0.821554 0,0.451855 1.478799,0.821555 3.286219,0.821555 3.10365,0 3.286216,0.136928 3.286216,2.464664 0,1.916967 -0.365132,2.464664 -1.643106,2.464664 -0.90371,0 -1.64311,0.3697 -1.64311,0.821555 0,0.451855 0.7394,0.821555 1.64311,0.821555 1.0954,0 1.643106,0.547706 1.643106,1.643109 0,1.369261 0.547706,1.64311 3.286219,1.64311 3.103654,0 3.286219,0.136928 3.286219,2.464664 0,1.916958 -0.365131,2.464664 -1.643109,2.464664 -1.095404,0 -1.64311,0.547706 -1.64311,1.643109 0,1.095404 -0.547706,1.64311 -1.64311,1.64311 -1.095403,0 -1.643109,0.547706 -1.643109,1.643106 0,1.09541 -0.547706,1.64311 -1.643106,1.64311 -1.095404,0 -1.64311,0.54771 -1.64311,1.64311 0,1.36926 -0.547706,1.64311 -3.286219,1.64311 -2.738513,0 -3.286218,0.27385 -3.286218,1.64311 0,1.27798 -0.547706,1.64311 -2.464665,1.64311 -1.916958,0 -2.464664,-0.36513 -2.464664,-1.64311 0,-1.0954 -0.547706,-1.64311 -1.643109,-1.64311 -1.095404,0 -1.64311,-0.54771 -1.64311,-1.64311 0,-0.90371 -0.369699,-1.64311 -0.821554,-1.64311 -0.451855,0 -0.821554,1.4788 -0.821554,3.28622 v 3.28622 h -4.107774 -4.107773 z m 6.572437,-0.82155 c 0,-1.91696 -0.365131,-2.46467 -1.643109,-2.46467 -1.095404,0 -1.64311,-0.5477 -1.64311,-1.64311 0,-1.46054 -0.547705,-1.643106 -4.929328,-1.643106 -4.381622,0 -4.929328,-0.182566 -4.929328,-1.64311 0,-0.90371 -0.3697,-1.643109 -0.821555,-1.643109 -0.451855,0 -0.821555,1.109099 -0.821555,2.464664 v 2.464661 h 4.929329 4.929328 v 3.28622 c 0,3.10365 0.136929,3.28622 2.464664,3.28622 2.190815,0 2.464664,-0.27385 2.464664,-2.46466 z m 9.858656,1.64311 c 0,-0.45186 -0.3697,-0.82156 -0.821555,-0.82156 -0.451855,0 -0.821554,0.3697 -0.821554,0.82156 0,0.45185 0.369699,0.82155 0.821554,0.82155 0.451855,0 0.821555,-0.3697 0.821555,-0.82155 z m -3.286219,-3.28622 c 0,-0.45186 -0.369699,-0.82156 -0.821554,-0.82156 -0.451856,0 -0.821555,0.3697 -0.821555,0.82156 0,0.45185 0.369699,0.82155 0.821555,0.82155 0.451855,0 0.821554,-0.3697 0.821554,-0.82155 z m 3.286219,-4.107776 c 0,-4.381623 0.182566,-4.929329 1.64311,-4.929329 1.277977,0 1.643109,-0.547697 1.643109,-2.464664 0,-1.916958 -0.365132,-2.464664 -1.643109,-2.464664 -1.095404,0 -1.64311,-0.547698 -1.64311,-1.643109 0,-0.90371 -0.3697,-1.64311 -0.821555,-1.64311 -0.456423,0 -0.821554,2.190816 -0.821554,4.929329 0,4.381622 -0.182566,4.929328 -1.64311,4.929328 -1.277977,0 -1.643109,0.547706 -1.643109,2.464664 0,1.916958 0.365132,2.464661 1.643109,2.464661 1.095404,0 1.64311,0.54771 1.64311,1.64311 0,0.90371 0.369699,1.64311 0.821554,1.64311 0.456423,0 0.821555,-2.19081 0.821555,-4.929326 z m 6.572438,4.107776 c 0,-0.45186 -0.739399,-0.82156 -1.64311,-0.82156 -1.277977,0 -1.643109,-0.5477 -1.643109,-2.464662 0,-1.916958 0.365132,-2.464664 1.643109,-2.464664 1.095404,0 1.64311,-0.547706 1.64311,-1.643109 0,-1.27797 0.547706,-1.64311 2.464664,-1.64311 1.916955,0 2.464661,0.36514 2.464661,1.64311 0,0.90371 0.369699,1.643109 0.821555,1.643109 0.451855,0 0.821554,-0.739399 0.821554,-1.643109 0,-1.095404 0.547706,-1.64311 1.64311,-1.64311 0.903711,0 1.64311,-0.369699 1.64311,-0.821554 0,-0.451855 -1.478799,-0.821555 -3.28622,-0.821555 -2.738509,0 -3.286215,-0.273849 -3.286215,-1.643109 0,-1.095404 -0.547706,-1.64311 -1.64311,-1.64311 -1.277977,0 -1.643109,-0.547698 -1.643109,-2.464664 0,-1.916958 0.365132,-2.464664 1.643109,-2.464664 0.90371,0 1.64311,-0.3697 1.64311,-0.821555 0,-0.451855 -1.109099,-0.821555 -2.464664,-0.821555 -1.916959,0 -2.464665,0.36514 -2.464665,1.64311 0,1.095412 -0.547705,1.643109 -1.643109,1.643109 -0.90371,0 -1.643109,0.3697 -1.643109,0.821555 0,0.451855 0.739399,0.821555 1.643109,0.821555 1.424025,0 1.643109,0.547706 1.643109,4.107773 0,3.560068 -0.219084,4.107774 -1.643109,4.107774 -1.424025,0 -1.643109,0.547706 -1.643109,4.107773 0,4.016492 0.0548,4.107772 2.464664,4.107772 1.355565,0 2.464664,-0.3697 2.464664,-0.82155 z M 61.051117,76.757985 c 0,-1.355565 -0.369699,-2.464664 -0.821554,-2.464664 -0.451855,0 -0.821554,1.109099 -0.821554,2.464664 0,1.355565 0.369699,2.464661 0.821554,2.464661 0.451855,0 0.821554,-1.109096 0.821554,-2.464661 z m 13.144876,1.643109 c 0,-0.451855 -0.3697,-0.821554 -0.821555,-0.821554 -0.451855,0 -0.821555,0.369699 -0.821555,0.821554 0,0.451852 0.3697,0.821552 0.821555,0.821552 0.451855,0 0.821555,-0.3697 0.821555,-0.821552 z m 3.286219,0 c 0,-0.451855 -0.3697,-0.821554 -0.821555,-0.821554 -0.451855,0 -0.821555,0.369699 -0.821555,0.821554 0,0.451852 0.3697,0.821552 0.821555,0.821552 0.451855,0 0.821555,-0.3697 0.821555,-0.821552 z m 0,-3.286218 c 0,-0.451855 -0.3697,-0.821555 -0.821555,-0.821555 -0.451855,0 -0.821555,0.3697 -0.821555,0.821555 0,0.451855 0.3697,0.821554 0.821555,0.821554 0.451855,0 0.821555,-0.369699 0.821555,-0.821554 z M 54.47868,71.007102 c 0,-1.424025 0.547706,-1.643109 4.107774,-1.643109 3.560067,0 4.107773,0.219084 4.107773,1.643109 0,0.90371 0.369699,1.643109 0.821555,1.643109 0.451855,0 0.821554,-1.848498 0.821554,-4.107773 0,-3.560068 -0.219084,-4.107774 -1.643109,-4.107774 -1.48662,0 -1.64311,-0.547697 -1.64311,-5.750883 V 52.932898 H 66.802 c 5.203178,0 5.750883,0.15649 5.750883,1.64311 0,0.90371 0.3697,1.643109 0.821555,1.643109 0.451855,0 0.821555,-1.109099 0.821555,-2.464664 0,-2.327736 -0.182566,-2.464664 -3.286219,-2.464664 -2.738513,0 -3.286219,-0.273849 -3.286219,-1.643113 0,-0.90371 -0.3697,-1.643109 -0.821555,-1.643109 -0.451855,0 -0.821554,0.739399 -0.821554,1.643109 0,1.424037 -0.547706,1.643113 -4.107774,1.643113 -3.560067,0 -4.107773,-0.219076 -4.107773,-1.643113 0,-0.90371 -0.369699,-1.643109 -0.821554,-1.643109 -0.451856,0 -0.821555,1.848498 -0.821555,4.107777 0,3.560075 0.219084,4.107773 1.643109,4.107773 1.48662,0 1.64311,0.547706 1.64311,5.750883 v 5.750883 H 56.12179 c -2.738513,0 -3.286219,0.273857 -3.286219,1.64311 0,1.095411 -0.547706,1.643109 -1.643109,1.643109 -0.903711,0 -1.64311,0.3697 -1.64311,0.821555 0,0.451855 1.109099,0.821554 2.464664,0.821554 1.916959,0 2.464664,-0.365131 2.464664,-1.643109 z m -6.572437,-4.107774 c 0,-1.916958 -0.365132,-2.464664 -1.64311,-2.464664 -1.36926,0 -1.643109,-0.547697 -1.643109,-3.286219 0,-1.80742 -0.3697,-3.286218 -0.821555,-3.286218 -0.469461,0 -0.821555,2.464664 -0.821555,5.750883 v 5.750883 h 2.464665 c 2.190815,0 2.464664,-0.273849 2.464664,-2.464665 z m 3.286219,0.821555 c 0,-1.369252 0.547705,-1.643109 3.286218,-1.643109 h 3.286219 V 61.97 c 0,-2.259275 -0.369699,-4.107773 -0.821554,-4.107773 -0.451856,0 -0.821555,0.739399 -0.821555,1.643109 0,1.095412 -0.547706,1.643109 -1.64311,1.643109 -1.095403,0 -1.643109,0.547706 -1.643109,1.64311 0,1.095412 -0.547706,1.643109 -1.643109,1.643109 -1.277978,0 -1.64311,0.547706 -1.64311,2.464664 0,1.355566 0.3697,2.464665 0.821555,2.464665 0.451855,0 0.821555,-0.7394 0.821555,-1.64311 z m 0,-5.750883 c 0,-0.451855 -0.3697,-0.821555 -0.821555,-0.821555 -0.451855,0 -0.821555,0.3697 -0.821555,0.821555 0,0.451855 0.3697,0.821555 0.821555,0.821555 0.451855,0 0.821555,-0.3697 0.821555,-0.821555 z m 13.144874,-0.821555 c 0,-1.095403 0.547706,-1.643109 1.64311,-1.643109 1.095403,0 1.643109,-0.547698 1.643109,-1.643109 0,-1.095404 0.547706,-1.64311 1.64311,-1.64311 0.90371,0 1.643109,-0.3697 1.643109,-0.821555 0,-0.451855 -1.848498,-0.821554 -4.107774,-0.821554 h -4.107773 v 4.107773 c 0,2.259276 0.369699,4.107774 0.821555,4.107774 0.451855,0 0.821554,-0.739399 0.821554,-1.64311 z M 67.623555,61.97 c 0,-0.451855 -0.3697,-0.821555 -0.821555,-0.821555 -0.451855,0 -0.821554,0.3697 -0.821554,0.821555 0,0.451855 0.369699,0.821555 0.821554,0.821555 0.451855,0 0.821555,-0.3697 0.821555,-0.821555 z m 3.286219,0 c 0,-0.451855 -0.3697,-0.821555 -0.821555,-0.821555 -0.451855,0 -0.821554,0.3697 -0.821554,0.821555 0,0.451855 0.369699,0.821555 0.821554,0.821555 0.451855,0 0.821555,-0.3697 0.821555,-0.821555 z M 38.047586,58.683781 c 0,-0.451855 -0.739399,-0.821554 -1.643109,-0.821554 -1.095404,0 -1.64311,-0.547698 -1.64311,-1.64311 0,-0.90371 -0.369699,-1.643109 -0.821555,-1.643109 -0.451855,0 -0.821554,0.739399 -0.821554,1.643109 0,1.277978 -0.547706,1.64311 -2.464664,1.64311 -1.916959,0 -2.464665,-0.365132 -2.464665,-1.64311 0,-0.90371 -0.369699,-1.643109 -0.821554,-1.643109 -0.451855,0 -0.821555,1.109099 -0.821555,2.464664 v 2.464664 h 5.750883 c 3.286219,0 5.750883,-0.352094 5.750883,-0.821555 z m 16.431094,0 c 0,-0.451855 -0.369699,-0.821554 -0.821554,-0.821554 -0.451855,0 -0.821555,0.369699 -0.821555,0.821554 0,0.451855 0.3697,0.821555 0.821555,0.821555 0.451855,0 0.821554,-0.3697 0.821554,-0.821555 z m 16.431094,0 c 0,-0.451855 -0.3697,-0.821554 -0.821555,-0.821554 -0.451855,0 -0.821554,0.369699 -0.821554,0.821554 0,0.451855 0.369699,0.821555 0.821554,0.821555 0.451855,0 0.821555,-0.3697 0.821555,-0.821555 z M 47.906243,53.754453 c 0,-1.355565 -0.3697,-2.464664 -0.821555,-2.464664 -0.451855,0 -0.821555,1.109099 -0.821555,2.464664 0,1.355565 0.3697,2.464664 0.821555,2.464664 0.451855,0 0.821555,-1.109099 0.821555,-2.464664 z m -6.572438,-1.643109 c 0,-0.451856 -1.109099,-0.821555 -2.464664,-0.821555 -1.355565,0 -2.464664,0.369699 -2.464664,0.821555 0,0.451855 1.109099,0.821554 2.464664,0.821554 1.355565,0 2.464664,-0.369699 2.464664,-0.821554 z m 42.720842,-3.286223 c 0,-4.016482 -0.0548,-4.107773 -2.464665,-4.107773 -1.916958,0 -2.464664,0.36514 -2.464664,1.643109 0,1.095412 -0.547706,1.64311 -1.643106,1.64311 -0.90371,0 -1.64311,0.369699 -1.64311,0.821554 0,0.451855 0.7394,0.821555 1.64311,0.821555 1.0954,0 1.643106,0.547709 1.643106,1.643113 0,1.277977 0.547706,1.643109 2.464664,1.643109 2.409892,0 2.464665,-0.09128 2.464665,-4.107777 z m -62.438155,0 c 0,-0.451855 -0.3697,-0.821554 -0.821555,-0.821554 -0.451855,0 -0.821555,0.369699 -0.821555,0.821554 0,0.451855 0.3697,0.821555 0.821555,0.821555 0.451855,0 0.821555,-0.3697 0.821555,-0.821555 z m 9.858656,0 c 0,-0.451855 -0.739399,-0.821554 -1.643109,-0.821554 -1.095404,0 -1.64311,-0.547698 -1.64311,-1.64311 0,-1.277969 -0.547705,-1.643109 -2.464664,-1.643109 -1.355565,0 -2.464664,0.369699 -2.464664,0.821554 0,0.451856 0.739399,0.821555 1.64311,0.821555 1.095403,0 1.643109,0.547706 1.643109,1.64311 0,1.277977 0.547706,1.643109 2.464664,1.643109 1.355565,0 2.464664,-0.3697 2.464664,-0.821555 z m 13.144876,0 c 0,-0.451855 -0.3697,-0.821554 -0.821555,-0.821554 -0.451855,0 -0.821555,0.369699 -0.821555,0.821554 0,0.451855 0.3697,0.821555 0.821555,0.821555 0.451855,0 0.821555,-0.3697 0.821555,-0.821555 z m 6.572438,0 c 0,-0.451855 -0.3697,-0.821554 -0.821555,-0.821554 -0.451855,0 -0.821555,0.369699 -0.821555,0.821554 0,0.451855 0.3697,0.821555 0.821555,0.821555 0.451855,0 0.821555,-0.3697 0.821555,-0.821555 z M 18.330273,45.538902 c 0,-0.451855 -0.3697,-0.821554 -0.821555,-0.821554 -0.451855,0 -0.821555,0.369699 -0.821555,0.821554 0,0.451856 0.3697,0.821555 0.821555,0.821555 0.451855,0 0.821555,-0.369699 0.821555,-0.821555 z m 23.003532,0 c 0,-0.451855 -1.848498,-0.821554 -4.107774,-0.821554 -2.259275,0 -4.107773,0.369699 -4.107773,0.821554 0,0.451856 1.848498,0.821555 4.107773,0.821555 2.259276,0 4.107774,-0.369699 4.107774,-0.821555 z m 23.003531,0 c 0,-0.451855 -0.369699,-0.821554 -0.821554,-0.821554 -0.451856,0 -0.821555,0.369699 -0.821555,0.821554 0,0.451856 0.369699,0.821555 0.821555,0.821555 0.451855,0 0.821554,-0.369699 0.821554,-0.821555 z m 9.858657,0 c 0,-0.451855 -0.3697,-0.821554 -0.821555,-0.821554 -0.451855,0 -0.821555,0.369699 -0.821555,0.821554 0,0.451856 0.3697,0.821555 0.821555,0.821555 0.451855,0 0.821555,-0.369699 0.821555,-0.821555 z m -26.28975,-3.286218 c 0,-0.451855 -0.7394,-0.821555 -1.64311,-0.821555 -1.095403,0 -1.643109,-0.547698 -1.643109,-1.64311 0,-0.90371 -0.3697,-1.643109 -0.821555,-1.643109 -0.451855,0 -0.821555,1.109099 -0.821555,2.464664 0,2.190815 0.273849,2.464664 2.464665,2.464664 1.355565,0 2.464664,-0.369699 2.464664,-0.821554 z m 0,-3.286219 c 0,-0.451855 -0.3697,-0.821555 -0.821555,-0.821555 -0.451855,0 -0.821555,0.3697 -0.821555,0.821555 0,0.451855 0.3697,0.821554 0.821555,0.821554 0.451855,0 0.821555,-0.369699 0.821555,-0.821554 z m 3.286219,-1.64311 c 0,-2.190807 -0.273849,-2.464664 -2.464665,-2.464664 -1.355565,0 -2.464664,0.3697 -2.464664,0.821555 0,0.451855 0.739399,0.821555 1.64311,0.821555 1.095403,0 1.643109,0.547705 1.643109,1.643109 0,0.90371 0.3697,1.643109 0.821555,1.643109 0.451855,0 0.821555,-1.109098 0.821555,-2.464664 z m 29.575965,44.363961 c 0,-2.19082 0.273849,-2.46467 2.464665,-2.46467 2.190816,0 2.464664,0.27385 2.464664,2.46467 0,2.19081 -0.273848,2.46466 -2.464664,2.46466 -2.190816,0 -2.464665,-0.27385 -2.464665,-2.46466 z m 3.28622,0 c 0,-0.45186 -0.3697,-0.82156 -0.821555,-0.82156 -0.451856,0 -0.821555,0.3697 -0.821555,0.82156 0,0.45185 0.369699,0.82155 0.821555,0.82155 0.451855,0 0.821555,-0.3697 0.821555,-0.82155 z M 15.044054,57.040672 c 0,-4.016483 0.0548,-4.107774 2.464664,-4.107774 1.916958,0 2.464664,0.36514 2.464664,1.64311 0,1.095411 0.547706,1.643109 1.64311,1.643109 1.277977,0 1.643109,0.547706 1.643109,2.464664 0,2.4099 -0.09128,2.464664 -4.107773,2.464664 h -4.107774 z m 6.572438,1.643109 c 0,-0.451855 -0.7394,-0.821554 -1.64311,-0.821554 -1.095403,0 -1.643109,-0.547698 -1.643109,-1.64311 0,-0.90371 -0.3697,-1.643109 -0.821555,-1.643109 -0.451855,0 -0.821555,1.109099 -0.821555,2.464664 0,2.190815 0.273849,2.464664 2.464665,2.464664 1.355565,0 2.464664,-0.3697 2.464664,-0.821555 z m 59.151935,0 c 0,-2.190807 0.273849,-2.464664 2.464665,-2.464664 2.190816,0 2.464664,0.273857 2.464664,2.464664 0,2.190816 -0.273848,2.464664 -2.464664,2.464664 -2.190816,0 -2.464665,-0.273848 -2.464665,-2.464664 z m 3.28622,0 c 0,-0.451855 -0.3697,-0.821554 -0.821555,-0.821554 -0.451856,0 -0.821555,0.369699 -0.821555,0.821554 0,0.451855 0.369699,0.821555 0.821555,0.821555 0.451855,0 0.821555,-0.3697 0.821555,-0.821555 z M 15.044054,29.107808 V 16.784491 H 27.367375 39.690696 V 29.107808 41.431129 H 27.367375 15.044054 Z m 23.003532,0 V 18.4276 H 27.367375 16.687163 v 10.680208 10.680211 h 10.680212 10.680211 z m -19.717313,0 V 20.07071 h 9.037102 9.037102 v 9.037098 9.037102 h -9.037102 -9.037102 z m 16.431094,0 v -7.393989 h -7.393992 -7.393993 v 7.393989 7.393993 h 7.393993 7.393992 z m -13.144875,0 v -5.750883 h 5.750883 5.750883 v 5.750883 5.750883 h -5.750883 -5.750883 z m 9.858656,0 v -4.107773 h -4.107773 -4.107774 v 4.107773 4.107774 h 4.107774 4.107773 z m 23.003532,9.858657 c 0,-2.190807 0.273849,-2.464664 2.464665,-2.464664 2.190815,0 2.464664,0.273857 2.464664,2.464664 0,2.190815 -0.273849,2.464664 -2.464664,2.464664 -2.190816,0 -2.464665,-0.273849 -2.464665,-2.464664 z m 3.286219,0 c 0,-0.451855 -0.369699,-0.821555 -0.821554,-0.821555 -0.451856,0 -0.821555,0.3697 -0.821555,0.821555 0,0.451855 0.369699,0.821554 0.821555,0.821554 0.451855,0 0.821554,-0.369699 0.821554,-0.821554 z m 3.286218,-9.858657 V 16.784491 H 73.374438 85.697756 V 29.107808 41.431129 H 73.374438 61.051117 Z m 23.00353,0 V 18.4276 H 73.374438 62.694227 v 10.680208 10.680211 h 10.680211 10.680209 z m -19.717311,0 V 20.07071 h 9.037102 9.037099 v 9.037098 9.037102 h -9.037099 -9.037102 z m 16.431091,0 v -7.393989 h -7.393989 -7.393992 v 7.393989 7.393993 h 7.393992 7.393989 z m -13.144872,0 v -5.750883 h 5.750883 5.75088 v 5.750883 5.750883 h -5.75088 -5.750883 z m 9.858657,0 v -4.107773 h -4.107774 -4.107773 v 4.107773 4.107774 h 4.107773 4.107774 z m -36.148407,0 c 0,-1.916958 0.365132,-2.464664 1.643109,-2.464664 0.903711,0 1.64311,-0.3697 1.64311,-0.821555 0,-0.451855 -0.739399,-0.821554 -1.64311,-0.821554 -1.424025,0 -1.643109,-0.547698 -1.643109,-4.107771 0,-4.016482 0.0548,-4.107773 2.464664,-4.107773 2.327736,0 2.464664,0.182573 2.464664,3.286219 0,3.103649 0.136929,3.286215 2.464664,3.286215 1.355566,0 2.464665,-0.3697 2.464665,-0.821551 0,-0.451855 -0.7394,-0.821555 -1.64311,-0.821555 -1.277978,0 -1.643109,-0.547698 -1.643109,-2.464664 0,-2.190807 0.273849,-2.464664 2.464664,-2.464664 1.916958,0 2.464664,0.36514 2.464664,1.643109 0,1.36926 0.547706,1.64311 3.286219,1.64311 h 3.286219 v 4.10777 4.107773 H 56.12179 c -2.738513,0 -3.286219,0.273857 -3.286219,1.64311 0,1.486628 -0.547706,1.643109 -5.750883,1.643109 h -5.750883 z m 9.858657,-0.821555 c 0,-1.369252 0.547705,-1.643109 3.286218,-1.643109 3.103653,0 3.286219,-0.13692 3.286219,-2.464664 0,-2.190804 -0.273849,-2.464661 -2.464664,-2.464661 -1.916958,0 -2.464664,0.36514 -2.464664,1.643106 0,1.369261 -0.547706,1.64311 -3.286219,1.64311 -2.738513,0 -3.286219,0.273857 -3.286219,1.643109 0,1.095412 -0.547706,1.643109 -1.643109,1.643109 -0.90371,0 -1.64311,0.3697 -1.64311,0.821555 0,0.451855 1.848498,0.821555 4.107774,0.821555 3.560068,0 4.107774,-0.219076 4.107774,-1.64311 z m -6.572438,-7.393989 c 0,-1.355566 -0.3697,-2.464664 -0.821555,-2.464664 -0.451855,0 -0.821555,1.109098 -0.821555,2.464664 0,1.355566 0.3697,2.464661 0.821555,2.464661 0.451855,0 0.821555,-1.109095 0.821555,-2.464661 z m 6.572438,-1.643109 c 0,-0.451855 -0.3697,-0.821555 -0.821555,-0.821555 -0.451855,0 -0.821555,0.3697 -0.821555,0.821555 0,0.451854 0.3697,0.821555 0.821555,0.821555 0.451855,0 0.821555,-0.369701 0.821555,-0.821555 z"
     id="path5968"
     inkscape:connector-curvature="0"
     inkscape:export-xdpi="174.588"
     inkscape:export-ydpi="174.588" />
  <text
     xml:space="preserve"
     style="font-style:normal;font-weight:normal;font-size:84.40349579px;line-height:360.8894043px;font-family:sans-serif;text-align:start;letter-spacing:0px;word-spacing:0px;text-anchor:start;fill:#141e1e;fill-opacity:1;stroke:none;stroke-width:4.52161598px;stroke-linecap:butt;stroke-linejoin:miter;stroke-opacity:1"
     x="102.49749"
     y="81.188347"
     id="text5985"
     inkscape:export-xdpi="174.588"
     inkscape:export-ydpi="174.588"><tspan
       sodipodi:role="line"
       id="tspan5983"
       x="102.49749"
       y="81.188347"
       style="font-style:normal;font-variant:normal;font-weight:normal;font-stretch:normal;font-family:'Fira Mono';-inkscape-font-specification:'Fira Mono';fill:#141e1e;fill-opacity:1;stroke-width:4.52161598px">IPID</tspan></text>
</svg>
